<svg width="870" height="1280" viewBox="0 0 870 1280" fill="none" xmlns="http://www.w3.org/2000/svg">
<path opacity="0.47" d="M508.845 3C508.845 3.48239 540.769 34.8189 593.249 85.0316C620.957 111.542 637.14 119.561 659.049 125.993C732.169 147.457 782.167 150.417 815.813 164.201C839.291 173.819 853.223 196.838 863.656 216.238C867.483 223.354 866.992 234.906 866.562 248.142C866.001 265.456 835.904 284.446 811.651 296.214C788.097 307.643 765.602 289.548 738.716 281.811C699.519 270.531 645.676 281.193 624.909 293.564C610.507 302.142 605.8 319.345 602.488 338.45C598.767 359.911 616.829 375.361 629.05 391.487C644.383 411.717 629.745 456.216 619.998 471.606C614.92 479.625 602.284 484.479 584.642 489.469C559.873 496.474 540.347 491.078 527.417 482.826C500.287 465.512 484.439 446.136 480.418 439.897C475.885 432.861 475.251 420.417 476.226 407.521C476.871 398.989 485.809 393.263 494.243 387.219C501.313 382.154 513.499 381.298 527.22 381.549C545.042 381.877 555.671 398.128 562.302 410.28C565.586 416.3 564.01 426.067 562.565 435.931C561.337 444.307 551.288 448.174 543.168 451.292C513.953 462.51 448.195 449.4 397.857 430.499C349.789 412.45 328.688 377.16 308.464 358.517C294.537 345.68 270.182 344.281 211.558 344.616C192.536 344.725 179.127 353.479 165.981 361.131C156.723 366.519 152.333 373.486 149.832 384.705C145.449 404.365 150.975 424.782 155.467 437.705C158.824 447.362 165.654 453.14 173.4 457.409C181.655 461.959 191.218 461.344 198.602 460.541C202.148 460.155 204.99 458.08 206.748 455.533C210.364 450.296 209.547 442.465 207.924 436.091C206.283 429.651 191.726 429.432 177.671 429.593C158.18 429.816 134.665 456.827 112.112 483.253C74.1345 527.752 31.9064 580.189 15.7641 614.407C-6.5632 661.735 5.9465 715.392 11.9633 721.429C28.6532 738.175 58.6571 748.8 70.3579 761.289C82.9827 774.763 85.7247 796.255 90.2313 819.423C92.0755 828.904 94.6743 836.485 100.356 842.033C121.769 862.939 173.306 844.401 186.791 839.396C212.781 829.749 265.066 782.026 316.523 766.929C375.79 749.54 394.314 767.565 478.807 777.26C513.924 781.289 536.133 776.433 564.403 770.631C616.399 759.961 657.007 758.554 669.209 759.15C678.414 759.6 685.373 764.883 695.08 777.703C714.203 802.959 720.505 831.846 719.269 846.559C716.928 874.43 653.601 885.14 625.705 893.268C598.662 901.147 576.646 895.304 569.997 892.514C562.211 889.248 557.55 881.645 555.18 875.095C554.03 871.916 555.239 868.428 556.892 865.262C565.734 848.323 591.759 841.402 606.212 840.474C627.568 839.103 642.743 868.837 644.855 876.841C649.65 895.008 650.144 931.872 655.448 984.331C657.928 1008.86 670.086 1026.49 682.376 1042.15C693.603 1056.45 731.681 1054.58 758.832 1048.26C788.672 1041.32 800.382 993.8 800.264 974.568C800.237 970.126 795.929 967.301 792.713 965.181C789.497 963.061 786.043 961.98 783.029 962.711C761.401 967.956 754.357 1009.39 750.929 1040.11C744.77 1095.31 749.269 1143.76 748.6 1163.26C748.146 1176.49 709.628 1204.65 652.591 1243.88C617.347 1268.11 595.395 1273.61 581.563 1275.49C568.345 1277.28 558.597 1274.6 552.488 1270.69C531.608 1257.35 518.6 1224.43 501.123 1213.41C467.296 1192.07 427.123 1202.27 409.349 1208.02C392.725 1213.14 368.679 1216 282.636 1216.81C263.985 1216.18 258.463 1214.94 246.392 1218.58" stroke="#578E5B" stroke-width="6" stroke-linecap="round"/>
</svg>
